<svg xmlns="http://www.w3.org/2000/svg" width="250.09" height="61.738" viewBox="0 0 956 236">
  <defs>
    <style>
      .cls-1 {
        fill: #e11d48;
      }

      .cls-1, .cls-2, .cls-3, .cls-4 {
        fill-rule: evenodd;
      }

      .cls-2 {
        fill: #1a56db;
      }

      .cls-3 {
        fill: #fff;
      }
    </style>
  </defs>
  <path class="cls-1" d="M25.808,12.007H479.355V138.892H25.808a10.8,10.8,0,0,1-10.8-10.8V22.806A10.8,10.8,0,0,1,25.808,12.007Z"/>
  <path id="Rectangle_2_copy" data-name="Rectangle 2 copy" class="cls-2" d="M930.2,138.892H476.655V12.007H930.2a10.8,10.8,0,0,1,10.8,10.8V128.094A10.8,10.8,0,0,1,930.2,138.892Z"/>
  <path id="Expert" class="cls-3" d="M71.032,105.074l19.07-.043q12.612,0,23.188.086,0.346-6.847.866-13.262-4.677.3-6.669,0.347l-8.967.217q-6.93.13-9.139,0.13H84.4l0.515-10.532q7.407-.3,13.385-0.3,4.028,0,11.522.087,0.389-7.671.823-13.219-10.491.3-12.919,0.3-6.806,0-11.922-.13l0.526-9.969q4.637-.173,6.826-0.2t8.43-.022q5.677,0,14.043.347,0-1.554.087-3.067l0.26-4.709q0.172-3.239.217-3.758l0.086-1.426q-10.227.087-23.617,0.087-14.518,0-24.744-.087l0.043,3.814q0,4.074-.5,16.578t-1,20.046q-0.5,7.541-1.586,18.723Zm56.7-.043q3.684,0,10.012.086,2.947-4.506,6.805-10.011t5.547-8.538q2.253,4.465,5.31,9.773t4.745,8.776q5.592-.086,11.313-0.086,3.423,0,10.272.086-12.051-18.375-19.071-30.339,5.5-7.974,11.659-16.166T183.6,45.956q-6.458.087-9.968,0.087-5.419,0-10.012-.087-2.254,3.944-5.245,8.387t-4.724,7.433q-1.518-3.251-4.1-7.65t-4.485-8.17q-5.289.087-9.926,0.087-5.85,0-11.442-.087,1.993,3.208,3.6,5.721l4.334,6.718q2.686,4.2,4.117,6.545l5.115,8.625q-3.988,5.721-11.248,15.43t-12.33,16.123q6.37-.086,10.445-0.086h0Zm70.143,0,8.632,0.086V99.483q0-3.727.557-22.364,0.3-10.228.858-18.593l3.641-.26q1.69-.086,3.251-0.087a16.99,16.99,0,0,1,2.86.217,5.566,5.566,0,0,1,2.3.954,4.289,4.289,0,0,1,1.517,1.885,6.789,6.789,0,0,1,.477,2.622,6.915,6.915,0,0,1-2.145,5.136q-2.146,2.1-6.523,2.1a19.863,19.863,0,0,1-3.988-.39q0.608,1.908,1.561,5.851t1.3,5.938a32.98,32.98,0,0,0,5.418.52,26.863,26.863,0,0,0,11.485-2.384A17.584,17.584,0,0,0,237,73.435a20.63,20.63,0,0,0,2.817-10.619,20.933,20.933,0,0,0-.738-5.526,15.555,15.555,0,0,0-2.211-4.832,14.9,14.9,0,0,0-3.728-3.706,15.681,15.681,0,0,0-5.051-2.319,36.688,36.688,0,0,0-8.606-.737q-4.033,0-9.843.2t-9.147.2q-3.47,0-9.192-.13,0.042,4.248.043,6.111,0,2.47-.043,4.941l-0.474,15.343-1.119,21.671-0.861,11.1q7.2-.086,9.023-0.086h0Zm55.781,0.043,19.071-.043q12.612,0,23.187.086,0.346-6.847.867-13.262-4.677.3-6.67,0.347l-8.966.217q-6.93.13-9.139,0.13h-4.981l0.516-10.532q7.407-.3,13.385-0.3,4.027,0,11.522.087,0.389-7.671.823-13.219-10.493.3-12.92,0.3-6.806,0-11.921-.13l0.526-9.969q4.637-.173,6.826-0.2t8.43-.022q5.677,0,14.043.347,0-1.554.087-3.067l0.26-4.709q0.173-3.239.216-3.758l0.087-1.426q-10.227.087-23.617,0.087-14.518,0-24.744-.087l0.043,3.814q0,4.074-.5,16.578t-1,20.046q-0.5,7.541-1.586,18.723Zm63.6-.043q2.169,0,9.416.086,0.127-12.308.555-25.094t0.983-21.671q2.168-.043,3.793-0.108t3.142-.065a23.18,23.18,0,0,1,6.61.694,5.926,5.926,0,0,1,3.142,2.1,5.525,5.525,0,0,1,1,3.272,7.487,7.487,0,0,1-1.322,4.2,7.717,7.717,0,0,1-3.9,2.947,16.447,16.447,0,0,1-5.742.954,25.166,25.166,0,0,1-4.594-.433l4.469,12.266q2.04,5.548,3.081,8.625,0.52,1.388,1.258,3.944,1.822,6.112,2.517,8.365,7.1-.086,10.222-0.086,2.468,0,9.615.086-1-2.426-1.387-3.25l-5.808-12.7q-1.085-2.383-2.037-4.681l-2.254-5.5a35.209,35.209,0,0,0,6.74-3.316,15.384,15.384,0,0,0,3.987-3.857,15.86,15.86,0,0,0,2.319-4.767A19.416,19.416,0,0,0,363.8,61.6a17.138,17.138,0,0,0-.672-4.876,13.124,13.124,0,0,0-1.885-3.966,14.119,14.119,0,0,0-3.034-3.056,16.946,16.946,0,0,0-4.485-2.319,24.235,24.235,0,0,0-5.914-1.257q-4.334-.433-9.881-0.433-4.724,0-9.707.2t-8.45.2q-3.338,0-8.754-.13,0,5.288-.174,14.238t-0.521,17.012q-0.348,8.061-.826,14.173t-1.3,13.739q6.552-.086,9.069-0.086h0Zm78.569,0q2.079,0,9.182.086,0-5.406.262-14.168t0.742-18.061q0.348-6.489,1-14.146h3.031q6.02,0,15.286.477,0-1.138.065-3.37t0.238-5.647l0.26-4.245L420.263,46h-10.4l-10.7.043q-16.378,0-28.683-.087-0.087,4.595-.26,8.452L370,59.219l18.447-.477q-0.43,25.312-2.584,46.375,8.1-.086,9.962-0.086h0Z"/>
  <path id="SCIENCE" class="cls-3" d="M529.5,106.244a39.747,39.747,0,0,0,8.646-.91,22.163,22.163,0,0,0,7.52-3.185,15.9,15.9,0,0,0,7.151-13.241,12.692,12.692,0,0,0-.3-2.839,12.377,12.377,0,0,0-.932-2.622,17.774,17.774,0,0,0-1.8-2.861,30.011,30.011,0,0,0-2.774-3.164,39.98,39.98,0,0,0-2.991-2.731l-3.12-2.471q-3.339-2.6-4.9-3.922a22.805,22.805,0,0,1-2.514-2.427,7.733,7.733,0,0,1-1.3-1.929,4.3,4.3,0,0,1-.347-1.69q0-1.863,2.232-3.12a11.323,11.323,0,0,1,5.613-1.257,30.994,30.994,0,0,1,5.678.628,39.805,39.805,0,0,1,7.281,2.232q-0.649-6.241-.823-8.733t-0.3-5.483a83.333,83.333,0,0,0-15.949-1.69,43.946,43.946,0,0,0-7.238.585,21.98,21.98,0,0,0-6.588,2.189,16.051,16.051,0,0,0-4.941,3.814,15.773,15.773,0,0,0-2.8,4.746,14.889,14.889,0,0,0-.932,5.179,14.6,14.6,0,0,0,.586,4.182,14.2,14.2,0,0,0,1.868,3.879,25.943,25.943,0,0,0,3.583,4.117q1.129,1.084,4,3.511l8.165,7.108A11.581,11.581,0,0,1,533,85.982a5.72,5.72,0,0,1,.825,1.517,4.548,4.548,0,0,1,.218,1.409,3.511,3.511,0,0,1-2.237,3.272,13.7,13.7,0,0,1-6.013,1.105,31.216,31.216,0,0,1-6.666-.845,46.558,46.558,0,0,1-8.662-3.012q0.736,5.548,1.3,14.779a98.329,98.329,0,0,0,17.727,2.037h0Zm76.224-13.631a49.274,49.274,0,0,1-6.7.5,20.942,20.942,0,0,1-9.47-1.929,15.138,15.138,0,0,1-6.089-5.461,15.417,15.417,0,0,1-2.254-8.473,18.792,18.792,0,0,1,2.687-9.882,17.629,17.629,0,0,1,7.368-6.8,23.225,23.225,0,0,1,10.532-2.34,42.924,42.924,0,0,1,5.829.433q3.143,0.434,8.214,1.647l-0.3-4.941q-0.172-2.86-.26-5.244l-0.086-3.641a95.244,95.244,0,0,0-15.863-1.647,50.812,50.812,0,0,0-13.523,1.8,34.934,34.934,0,0,0-12.027,5.981,27.676,27.676,0,0,0-8.408,10.445,32.936,32.936,0,0,0-2.926,14.108A32.416,32.416,0,0,0,564.61,89.3a22.782,22.782,0,0,0,7.216,9.427,32.087,32.087,0,0,0,11.1,5.764,46.7,46.7,0,0,0,13.067,1.755,113.187,113.187,0,0,0,16.557-1.387q0.26-2.5,1-7.064t1.257-7.108A80.53,80.53,0,0,1,605.719,92.613Zm30.408,12.418,8.881,0.086q0-7.454.26-18.008t0.871-22.689q0.478-8.712,1.262-18.464-8.155.087-9.326,0.087-2.559,0-10.15-.087l0.043,5.591q0,18.767-2.5,53.57,8.058-.086,10.657-0.086h0Zm27.839,0.043,19.07-.043q12.614,0,23.188.086,0.346-6.847.867-13.262-4.679.3-6.67,0.347l-8.966.217q-6.93.13-9.139,0.13h-4.981l0.515-10.532q7.407-.3,13.385-0.3,4.027,0,11.522.087,0.39-7.671.823-13.219-10.491.3-12.919,0.3-6.805,0-11.922-.13l0.527-9.969q4.636-.173,6.826-0.2t8.43-.022q5.677,0,14.043.347,0-1.554.086-3.067l0.26-4.709q0.173-3.239.217-3.758l0.087-1.426q-10.229.087-23.617,0.087-14.518,0-24.744-.087L660.9,49.77q0,4.074-.5,16.578t-1,20.046q-0.5,7.541-1.586,18.723Zm63.58-.043q2.814,0,8.182.086l0.444-17.3,0.933-20.552q2.121,4.205,4.112,7.718,3.029,5.55,6.622,11.62l7.272,12.357q1.082,1.909,3.333,6.157,7.2-.086,11.277-0.086,4.9,0,10.539.086l0.26-10.358,1.95-35.887,1.041-12.916q-7.015.087-8.487,0.087-3.2,0-8.529-.087,0,5.03-.511,18.168t-1,20.421l-2.55-4.943-18.5-33.646q-6.687.087-10.375,0.087-5.166,0-11.895-.087v6.761l-0.476,12.439L719.5,96.016l-0.867,9.1q6.537-.086,8.918-0.086h0ZM835.811,92.613a49.285,49.285,0,0,1-6.7.5,20.947,20.947,0,0,1-9.471-1.929,15.138,15.138,0,0,1-6.089-5.461,15.417,15.417,0,0,1-2.254-8.473,18.792,18.792,0,0,1,2.687-9.882,17.641,17.641,0,0,1,7.368-6.8,23.228,23.228,0,0,1,10.532-2.34,42.926,42.926,0,0,1,5.83.433q3.141,0.434,8.213,1.647l-0.3-4.941q-0.174-2.86-.26-5.244l-0.087-3.641a95.244,95.244,0,0,0-15.863-1.647,50.812,50.812,0,0,0-13.523,1.8,34.934,34.934,0,0,0-12.027,5.981,27.686,27.686,0,0,0-8.408,10.445,32.936,32.936,0,0,0-2.926,14.108A32.416,32.416,0,0,0,794.7,89.3a22.777,22.777,0,0,0,7.217,9.427,32.074,32.074,0,0,0,11.1,5.764,46.7,46.7,0,0,0,13.068,1.755,113.185,113.185,0,0,0,16.556-1.387q0.26-2.5,1-7.064t1.257-7.108A80.565,80.565,0,0,1,835.811,92.613ZM861.5,105.074l19.071-.043q12.612,0,23.187.086,0.347-6.847.867-13.262-4.677.3-6.67,0.347l-8.966.217q-6.93.13-9.139,0.13h-4.981l0.516-10.532q7.407-.3,13.385-0.3,4.027,0,11.522.087,0.388-7.671.822-13.219-10.491.3-12.919,0.3-6.805,0-11.921-.13l0.526-9.969q4.637-.173,6.826-0.2t8.43-.022q5.678,0,14.043.347,0-1.554.086-3.067l0.26-4.709q0.174-3.239.217-3.758l0.087-1.426q-10.227.087-23.617,0.087-14.519,0-24.744-.087l0.043,3.814q0,4.074-.5,16.578t-1,20.046q-0.5,7.541-1.586,18.723Z"/>
  <path id="_11th_12th_JEE_NEET_MHT-CET" data-name="11th &amp; 12th  JEE / NEET / MHT-CET" class="cls-4" d="M33.955,209.437V178.449H22.731V174.3a26.668,26.668,0,0,0,4.27-.335,11.652,11.652,0,0,0,3.752-1.251,8.553,8.553,0,0,0,2.836-2.5,9.515,9.515,0,0,0,1.586-4.026H39.14v43.249H33.955Zm33.916,0V178.449H56.647V174.3a26.668,26.668,0,0,0,4.27-.335,11.654,11.654,0,0,0,3.752-1.251,8.554,8.554,0,0,0,2.837-2.5,9.518,9.518,0,0,0,1.586-4.026h3.965v43.249H67.871Zm27.52-38.7v2.668H91.728v11.415a3.293,3.293,0,0,0,.089.854,0.879,0.879,0,0,0,.338.5,1.49,1.49,0,0,0,.694.231,10.216,10.216,0,0,0,1.156.053h1.387v2.667H93.08a10.825,10.825,0,0,1-2.009-.16,2.947,2.947,0,0,1-1.351-.586,2.507,2.507,0,0,1-.765-1.21,6.976,6.976,0,0,1-.249-2.062v-11.7h-3.13v-2.668h3.13v-5.512h3.023v5.512h3.663Zm6.366-7.006v9.709h0.071a4.013,4.013,0,0,1,.995-1.44,5.663,5.663,0,0,1,1.441-.96,7.48,7.48,0,0,1,1.671-.552,8.48,8.48,0,0,1,1.689-.177,8,8,0,0,1,3.023.5A4.99,4.99,0,0,1,112.6,172.2a5.146,5.146,0,0,1,1.049,2.116,11.355,11.355,0,0,1,.3,2.721v12.091h-3.023V176.677a3.65,3.65,0,0,0-1-2.7,3.7,3.7,0,0,0-2.738-1,6.154,6.154,0,0,0-2.4.427,4.484,4.484,0,0,0-1.689,1.209,5.2,5.2,0,0,0-1.014,1.831,7.458,7.458,0,0,0-.337,2.294v10.384H98.734V163.732h3.023Zm43.087,17.584a12.257,12.257,0,0,0,1.891-1.647,8.293,8.293,0,0,0,1.4-2.043,5.71,5.71,0,0,0,.549-2.532,4.511,4.511,0,0,0-1.342-3.263,4.885,4.885,0,0,0-3.66-1.373,5.781,5.781,0,0,0-3.416,1.129,4.009,4.009,0,0,0-1.586,3.507,5.136,5.136,0,0,0,.4,1.952,11.52,11.52,0,0,0,1.006,1.922,22.269,22.269,0,0,0,1.342,1.86l1.464,1.83Q143.807,182.049,144.844,181.316Zm3.874,27.267a16.848,16.848,0,0,1-6.985,1.525,15.907,15.907,0,0,1-7.076-1.342,11.78,11.78,0,0,1-4.148-3.233,9.992,9.992,0,0,1-1.921-3.9,15.675,15.675,0,0,1-.458-3.355,11.537,11.537,0,0,1,.824-4.514,12.758,12.758,0,0,1,2.2-3.507,16.707,16.707,0,0,1,3.233-2.806,43.754,43.754,0,0,1,3.934-2.349q-0.915-1.281-1.769-2.44a27.138,27.138,0,0,1-1.555-2.348,11.358,11.358,0,0,1-1.1-2.5,10.193,10.193,0,0,1-.4-2.959,9.108,9.108,0,0,1,.641-3.385,8.392,8.392,0,0,1,1.891-2.867,9.04,9.04,0,0,1,3.08-1.983,11.27,11.27,0,0,1,4.209-.732,14.256,14.256,0,0,1,3.935.549,9.972,9.972,0,0,1,3.385,1.678,8.517,8.517,0,0,1,2.349,2.806,8.191,8.191,0,0,1,.884,3.873,9.688,9.688,0,0,1-.671,3.63,11.555,11.555,0,0,1-1.83,3.08,16.258,16.258,0,0,1-2.623,2.532,27.44,27.44,0,0,1-3.05,2.043l7.869,9.577a23.958,23.958,0,0,0,1.4-6.771h4.941q-0.183,1.953-.4,3.325a20.6,20.6,0,0,1-.549,2.531,19.319,19.319,0,0,1-.824,2.288q-0.489,1.129-1.159,2.592l8.479,9.821h-6.771l-4.636-5.429A12.073,12.073,0,0,1,148.718,208.583Zm-10.431-18.422a12.579,12.579,0,0,0-2.41,2.074,9.342,9.342,0,0,0-1.647,2.593,8.6,8.6,0,0,0-.61,3.385,6.535,6.535,0,0,0,.7,3.02,7.138,7.138,0,0,0,1.86,2.318,9.121,9.121,0,0,0,2.654,1.494,8.859,8.859,0,0,0,3.08.549,10.2,10.2,0,0,0,5.338-1.4,12.248,12.248,0,0,0,3.934-3.782l-10-12.017Q139.659,189.247,138.287,190.161Zm59.749,19.276V178.449H186.812V174.3a26.668,26.668,0,0,0,4.27-.335,11.651,11.651,0,0,0,3.751-1.251,8.556,8.556,0,0,0,2.837-2.5,9.518,9.518,0,0,0,1.586-4.026h3.965v43.249h-5.185Zm20.74-34.038a12.924,12.924,0,0,1,2.653-4.849,12.452,12.452,0,0,1,4.484-3.2,15.259,15.259,0,0,1,6.1-1.159,16.58,16.58,0,0,1,5.276.824,12.821,12.821,0,0,1,4.3,2.379,11.1,11.1,0,0,1,2.9,3.873,12.724,12.724,0,0,1,1.068,5.368,13.487,13.487,0,0,1-.885,5.063,14.439,14.439,0,0,1-2.348,3.935,19.753,19.753,0,0,1-3.355,3.141q-1.892,1.4-3.9,2.684-2.013,1.221-4.026,2.41a31.821,31.821,0,0,0-3.691,2.531,16.757,16.757,0,0,0-2.867,2.9,8.194,8.194,0,0,0-1.555,3.568h22.2v4.575H216.885a22.944,22.944,0,0,1,1.372-6.557,17.531,17.531,0,0,1,2.715-4.728,20.427,20.427,0,0,1,3.721-3.538q2.073-1.524,4.331-2.867,2.745-1.707,4.819-3.141a21.331,21.331,0,0,0,3.446-2.9,9.744,9.744,0,0,0,2.776-7.137,7.467,7.467,0,0,0-.671-3.2,7.852,7.852,0,0,0-1.8-2.471,7.77,7.77,0,0,0-2.653-1.586,9.476,9.476,0,0,0-3.233-.549,7.545,7.545,0,0,0-3.874.946,8.131,8.131,0,0,0-2.653,2.47,10.311,10.311,0,0,0-1.5,3.447,14.657,14.657,0,0,0-.4,3.873h-5.185A17.474,17.474,0,0,1,218.776,175.4Zm40.7-4.661v2.668h-3.663v11.415a3.272,3.272,0,0,0,.089.854,0.881,0.881,0,0,0,.338.5,1.484,1.484,0,0,0,.693.231,10.214,10.214,0,0,0,1.156.053h1.387v2.667H257.16a10.826,10.826,0,0,1-2.009-.16,2.944,2.944,0,0,1-1.351-.586,2.51,2.51,0,0,1-.765-1.21,6.979,6.979,0,0,1-.249-2.062v-11.7h-3.129v-2.668h3.129v-5.512h3.023v5.512h3.663Zm6.365-7.006v9.709h0.071a4.015,4.015,0,0,1,1-1.44,5.675,5.675,0,0,1,1.44-.96,7.5,7.5,0,0,1,1.672-.552,8.472,8.472,0,0,1,1.689-.177,8,8,0,0,1,3.023.5,4.99,4.99,0,0,1,1.956,1.387,5.158,5.158,0,0,1,1.049,2.116,11.408,11.408,0,0,1,.3,2.721v12.091h-3.022V176.677a3.654,3.654,0,0,0-1-2.7,3.7,3.7,0,0,0-2.739-1,6.152,6.152,0,0,0-2.4.427,4.484,4.484,0,0,0-1.689,1.209,5.2,5.2,0,0,0-1.014,1.831,7.458,7.458,0,0,0-.338,2.294v10.384h-3.023V163.732h3.023Zm60.508,39.178a9.976,9.976,0,0,1-2.135,3.813,10.509,10.509,0,0,1-3.965,2.684,16.319,16.319,0,0,1-6.131,1.006q-6.1,0-9.394-3.2t-3.294-9.425V195.1h5.8v1.83a18.383,18.383,0,0,0,.305,3.477,7.5,7.5,0,0,0,1.068,2.745,5.03,5.03,0,0,0,2.135,1.8,8.314,8.314,0,0,0,3.507.64q3.965,0,5.46-2.135a9.827,9.827,0,0,0,1.494-5.734V165.883h5.8v32.7A14.994,14.994,0,0,1,326.345,202.91Zm40.229-37.027v4.88H342.3V184.61h22.631v4.88H342.3v15.067h24.461v4.88H336.5V165.883h30.073Zm37.271,0v4.88H379.567V184.61H402.2v4.88H379.567v15.067h24.461v4.88H373.772V165.883h30.073Zm40.808-1.037L426.6,210.413h-4.392l18-45.567h4.453Zm26.718,1.037L494.307,201.2h0.122V165.883h5.49v43.554h-6.344l-22.753-34.953H470.7v34.953h-5.49V165.883h6.161Zm68.014,0v4.88H515.107V184.61h22.631v4.88H515.107v15.067h24.461v4.88H509.312V165.883h30.073Zm37.27,0v4.88H552.377V184.61h22.631v4.88H552.377v15.067h24.461v4.88H546.582V165.883h30.073Zm2.562,4.88v-4.88h34.831v4.88H599.53v38.674h-5.795V170.763H579.217Zm73.26-5.917-18.056,45.567h-4.392l18-45.567h4.453Zm28.67,1.037,13.725,36.6,13.786-36.6h7.93v43.554H711.1V173.2h-0.122l-13.6,36.234h-4.941l-13.6-36.234h-0.122v36.234h-5.49V165.883h7.93Zm50.873,0V184.61h22.936V165.883h5.795v43.554h-5.795V189.49H732.02v19.947h-5.795V165.883h5.795Zm33.61,4.88v-4.88h34.831v4.88H785.943v38.674h-5.795V170.763H765.63Zm47.7,19.276v4.88H795.7v-4.88h17.629Zm34.129-17.995a13.467,13.467,0,0,0-7.9-2.318,14.146,14.146,0,0,0-6.679,1.464,13.172,13.172,0,0,0-4.575,3.935,16.973,16.973,0,0,0-2.654,5.642,25.206,25.206,0,0,0-.854,6.588,28.192,28.192,0,0,0,.854,7.046,16.834,16.834,0,0,0,2.654,5.795,13.093,13.093,0,0,0,4.605,3.934,14.332,14.332,0,0,0,6.71,1.464,12.923,12.923,0,0,0,5.094-.945,11.522,11.522,0,0,0,3.843-2.623,12.074,12.074,0,0,0,2.531-4,16.612,16.612,0,0,0,1.1-5h5.795q-0.855,8.235-5.673,12.81t-13.176,4.575a20.992,20.992,0,0,1-8.845-1.738,17.358,17.358,0,0,1-6.283-4.789,20.539,20.539,0,0,1-3.751-7.2A30.7,30.7,0,0,1,819,187.782a29.046,29.046,0,0,1,1.342-8.936,21.522,21.522,0,0,1,3.935-7.29,18.336,18.336,0,0,1,6.466-4.91,20.848,20.848,0,0,1,8.875-1.8,22.393,22.393,0,0,1,6.466.915,17.391,17.391,0,0,1,5.429,2.684,15.1,15.1,0,0,1,3.965,4.423,16.221,16.221,0,0,1,2.074,6.13h-5.8A10.78,10.78,0,0,0,847.461,172.044Zm47.792-6.161v4.88H870.975V184.61h22.631v4.88H870.975v15.067h24.461v4.88H865.18V165.883h30.073Zm2.562,4.88v-4.88h34.831v4.88H918.128v38.674h-5.8V170.763H897.815Z"/>
</svg>
